<svg width="92" height="45" viewBox="0 0 92 45" fill="none" xmlns="http://www.w3.org/2000/svg">
<path d="M6.98928 8.55584C6.57479 8.77214 5.66611 9.07656 4.51033 9.07656C1.90385 9.07656 0.206055 7.28207 0.206055 4.6304C0.206055 1.95469 2.03139 0.0159969 4.84511 0.0159969C5.76973 0.0159969 6.59871 0.248323 7.02116 0.464623L6.66247 1.68231C6.28784 1.46601 5.698 1.26573 4.84511 1.26573C2.86036 1.26573 1.79226 2.73978 1.79226 4.55029C1.79226 6.56108 3.07557 7.79479 4.78932 7.79479C5.68205 7.79479 6.2719 7.56247 6.71827 7.36219L6.98928 8.55584Z" fill="#18212E"/>
<path d="M9.82682 0.192268V3.85334C9.82682 5.23125 9.81088 6.09646 9.73914 7.33017H9.79494C10.313 6.28872 10.6159 5.67988 11.1898 4.67849L13.884 0.192268H15.7253V8.87631H14.2188V5.19921C14.2188 3.78124 14.2507 3.04423 14.3224 1.64228H14.2666C13.7166 2.75583 13.334 3.45279 12.8398 4.33402C12.0188 5.67988 11.0703 7.34619 10.1457 8.87631H8.34424V0.192268H9.82682Z" fill="#18212E"/>
<path d="M24.382 0.192262V8.87631H22.8277V1.45001H19.8625V3.65306C19.8625 6.09645 19.6313 7.70668 18.5074 8.44371C18.077 8.80421 17.5988 8.99648 16.7937 8.99648L16.6343 7.73873C16.9372 7.70669 17.2799 7.56248 17.4951 7.37823C18.3002 6.80143 18.3879 5.58374 18.3879 3.64505V0.184256H24.382V0.192262Z" fill="#18212E"/>
<path d="M32.5761 6.79342C32.5761 7.54647 32.6079 8.28349 32.7195 8.87631H31.2927L31.1652 7.77879H31.1094C30.6312 8.45973 29.6986 9.06857 28.4631 9.06857C26.7095 9.06857 25.8247 7.83486 25.8247 6.57712C25.8247 4.47821 27.6819 3.33262 31.0217 3.34864V3.1724C31.0217 2.4514 30.8225 1.16161 29.0609 1.16161C28.2558 1.16161 27.4189 1.40996 26.8131 1.81051L26.4544 0.769066C27.1718 0.304421 28.208 0 29.292 0C31.9384 0 32.5761 1.81051 32.5761 3.55693V6.79342ZM31.0536 4.44617C29.3399 4.41412 27.395 4.71854 27.395 6.40087C27.395 7.4263 28.0725 7.90697 28.8776 7.90697C30.0015 7.90697 30.7188 7.18596 30.9659 6.45695C31.0217 6.29673 31.0536 6.12049 31.0536 5.95225V4.44617Z" fill="#18212E"/>
<path d="M0 16.2652C0.605788 16.1611 1.72968 16.0649 2.74996 16.0649C4.19269 16.0649 6.59193 16.2973 6.59193 18.236C6.59193 19.3094 5.77092 19.9744 4.7905 20.1907V20.2227C6.05788 20.399 6.9825 21.12 6.9825 22.3777C6.9825 24.6529 4.12892 24.9413 2.43112 24.9413C1.46664 24.9413 0.470282 24.8692 0 24.8371V16.2652ZM1.48259 23.8037C1.92896 23.8598 2.24779 23.8758 2.74996 23.8758C3.80211 23.8758 5.37238 23.6274 5.37238 22.3697C5.37238 21.1119 4.12095 20.8476 2.62242 20.8476H1.48259V23.8037ZM1.49853 19.8061H2.67822C3.84197 19.8061 5.0376 19.4617 5.0376 18.4442C5.0376 17.579 4.28834 17.1705 2.71807 17.1705C2.19997 17.1705 1.88113 17.2025 1.5065 17.2426V19.8061H1.49853Z" fill="#18212E"/>
<path d="M16.3324 20.431C16.3324 23.6435 14.1165 25.0454 12.0282 25.0454C9.69269 25.0454 7.8833 23.323 7.8833 20.5752C7.8833 17.6672 9.7724 15.9608 12.1716 15.9608C14.6586 15.9608 16.3324 17.7713 16.3324 20.431ZM9.47748 20.5191C9.47748 22.4178 10.5695 23.8598 12.0999 23.8598C13.5984 23.8598 14.7223 22.4418 14.7223 20.4871C14.7223 19.013 13.989 17.1464 12.1318 17.1464C10.2825 17.1464 9.47748 18.8688 9.47748 20.5191Z" fill="#18212E"/>
<path d="M24.423 16.1611V24.8451H22.8687V17.4188H19.9035V19.6219C19.9035 22.0653 19.6723 23.6755 18.5485 24.4125C18.118 24.773 17.6398 24.9733 16.8347 24.9733L16.6753 23.7156C16.9782 23.6835 17.3209 23.5393 17.5362 23.3551C18.3412 22.7783 18.4289 21.5606 18.4289 19.6219V16.1611H24.423Z" fill="#18212E"/>
<path d="M34.3627 20.431C34.3627 23.6435 32.1468 25.0454 30.0584 25.0454C27.723 25.0454 25.9136 23.323 25.9136 20.5752C25.9136 17.6672 27.8027 15.9608 30.2019 15.9608C32.6888 15.9608 34.3627 17.7713 34.3627 20.431ZM27.5078 20.5191C27.5078 22.4178 28.5998 23.8598 30.1302 23.8598C31.6287 23.8598 32.7526 22.4418 32.7526 20.4871C32.7526 19.013 32.0193 17.1464 30.1621 17.1464C28.3128 17.1464 27.5078 18.8688 27.5078 20.5191Z" fill="#18212E"/>
<path d="M41.1615 16.1611V17.4348H37.4152V24.8451H35.8608V16.1611H41.1615Z" fill="#18212E"/>
<path d="M49.7861 20.431C49.7861 23.6435 47.5701 25.0454 45.4818 25.0454C43.1463 25.0454 41.3369 23.323 41.3369 20.5752C41.3369 17.6672 43.226 15.9608 45.6252 15.9608C48.1122 15.9608 49.7861 17.7713 49.7861 20.431ZM42.9311 20.5191C42.9311 22.4178 44.0231 23.8598 45.5535 23.8598C47.052 23.8598 48.1759 22.4418 48.1759 20.4871C48.1759 19.013 47.4426 17.1464 45.5854 17.1464C43.7361 17.1464 42.9311 18.8688 42.9311 20.5191Z" fill="#18212E"/>
<path d="M57.8925 16.1611V23.6595L58.7852 23.6755L58.6976 27.6089H57.4621L57.3903 24.8451H51.4122L51.3404 27.6089H50.1049L50.0332 23.6755L50.7665 23.6595C51.1412 23.1067 51.4281 22.5139 51.6274 21.881C51.9701 20.8075 52.1296 19.6379 52.1296 18.4202V16.1611H57.8925ZM53.5165 18.7967C53.5165 19.9423 53.3571 21.0559 53.0701 22.0252C52.8948 22.618 52.6397 23.1548 52.3766 23.6435H56.3621V17.3627H53.5245V18.7967H53.5165Z" fill="#18212E"/>
<path d="M66.3018 24.5247C65.8873 24.741 64.9786 25.0454 63.8228 25.0454C61.2164 25.0454 59.5186 23.2509 59.5186 20.5992C59.5186 17.9235 61.3359 15.9848 64.1576 15.9848C65.0822 15.9848 65.9032 16.2172 66.3337 16.4335L65.975 17.6511C65.6003 17.4348 65.0105 17.2426 64.1576 17.2426C62.1729 17.2426 61.1048 18.7166 61.1048 20.5271C61.1048 22.5379 62.3881 23.7716 64.1018 23.7716C64.9946 23.7716 65.5844 23.5393 66.0308 23.339L66.3018 24.5247Z" fill="#18212E"/>
<path d="M69.2431 16.1611V19.9263H69.6178L72.8699 16.1611H74.7829L71.0127 20.0945C72.4076 20.2387 73.2445 21.168 73.922 22.7302C74.1532 23.307 74.4561 24.1482 74.8546 24.8451H73.2126C72.9815 24.4686 72.6786 23.7877 72.4076 23.0667C71.8177 21.6647 71.0127 21.0238 69.554 21.0238H69.2511V24.8451H67.6968V16.1611H69.2431Z" fill="#18212E"/>
<path d="M77.2461 16.1611V19.8222C77.2461 21.2081 77.2302 22.0653 77.1584 23.307H77.2142C77.7323 22.2655 78.0352 21.6567 78.6091 20.6553L81.3033 16.1691H83.1446V24.8531H81.646V21.176C81.646 19.7581 81.6779 19.021 81.7497 17.6191H81.6939C81.1439 18.7326 80.7613 19.4296 80.2671 20.3108C79.4461 21.6567 78.4975 23.323 77.5729 24.8531H75.7715V16.1611H77.2461Z" fill="#18212E"/>
<path d="M85.9739 16.1611L87.2094 18.0277C87.5282 18.5083 87.7992 18.965 88.0862 19.4456H88.142C88.4289 18.9249 88.7159 18.4763 89.0028 18.0116L90.2144 16.1611H91.9122L88.963 20.3589L91.9999 24.8451H90.2064L88.9391 22.8904C88.5963 22.3857 88.3173 21.905 88.0144 21.3843H87.9826C87.6956 21.9211 87.3927 22.3697 87.0739 22.8904L85.8225 24.8451H84.0928L87.1616 20.415L84.2362 16.1611H85.9739Z" fill="#18212E"/>
<path d="M1.77942 32.1299V35.6307H5.88443V32.1299H7.43875V40.8139H5.88443V36.8805H1.77942V40.8139H0.225098V32.1299H1.77942Z" fill="#18212E"/>
<path d="M10.4355 36.7523C10.4674 38.8913 11.8304 39.7645 13.4007 39.7645C14.5246 39.7645 15.2021 39.5642 15.792 39.3159L16.063 40.4454C15.513 40.6938 14.5645 40.9982 13.1855 40.9982C10.5232 40.9982 8.93701 39.2197 8.93701 36.6001C8.93701 33.9805 10.4754 31.9136 12.9862 31.9136C15.8079 31.9136 16.5572 34.405 16.5572 36.0073C16.5572 36.3277 16.5253 36.5841 16.5014 36.7443H10.4355V36.7523ZM15.0427 35.6227C15.0587 34.6213 14.6282 33.0592 12.8667 33.0592C11.2805 33.0592 10.579 34.5332 10.4595 35.6227H15.0427Z" fill="#18212E"/>
<path d="M24.8071 32.1299V39.6283L25.6998 39.6443L25.6121 43.5778H24.3766L24.3049 40.8139H18.3267L18.255 43.5778H17.0195L16.9478 39.6443L17.6811 39.6283C18.0557 39.0755 18.3427 38.4827 18.5419 37.8498C18.8847 36.7763 19.0441 35.6067 19.0441 34.389V32.1299H24.8071ZM20.431 34.7655C20.431 35.9111 20.2716 37.0247 19.9847 37.994C19.8093 38.5868 19.5542 39.1236 19.2912 39.6123H23.2766V33.3316H20.439V34.7655H20.431Z" fill="#18212E"/>
<path d="M27.1264 34.9578C27.1264 33.8443 27.0945 32.947 27.0547 32.1219H28.4655L28.5373 33.6119H28.5692C29.2148 32.5545 30.2271 31.9216 31.6379 31.9216C33.7263 31.9216 35.2966 33.7001 35.2966 36.3357C35.2966 39.4601 33.4075 40.9982 31.3669 40.9982C30.2271 40.9982 29.2228 40.4935 28.7047 39.6363H28.6728V44.3548H27.1185V34.9578H27.1264ZM28.6807 37.273C28.6807 37.5053 28.7126 37.7216 28.7525 37.9219C29.0394 39.0194 29.988 39.7725 31.1119 39.7725C32.7698 39.7725 33.7343 38.4106 33.7343 36.4158C33.7343 34.6774 32.8256 33.1874 31.1597 33.1874C30.0916 33.1874 29.0873 33.9564 28.7844 35.1421C28.7286 35.3423 28.6807 35.5747 28.6807 35.791V37.273Z" fill="#18212E"/>
</svg>
