<svg width="24" height="24" viewBox="0 0 24 24" fill="none" xmlns="http://www.w3.org/2000/svg">
<path d="M2.88423 11.0165C2.88423 11.0165 11.0665 7.66875 13.9042 6.49C14.992 6.0185 18.6811 4.50963 18.6811 4.50963C18.6811 4.50963 20.3837 3.84963 20.2419 5.45263C20.1945 6.11275 19.8161 8.42313 19.4377 10.9221C18.8702 14.4585 18.2554 18.3248 18.2554 18.3248C18.2554 18.3248 18.1609 19.4093 17.3569 19.5979C16.5527 19.7865 15.2285 18.9378 14.992 18.7491C14.8029 18.6076 11.4449 16.4859 10.2152 15.4486C9.88411 15.1658 9.50573 14.5999 10.2625 13.9398C11.9651 12.3839 13.9989 10.4506 15.2285 9.22475C15.796 8.65888 16.3636 7.33863 13.9989 8.94175C10.6409 11.2521 7.33011 13.4211 7.33011 13.4211C7.33011 13.4211 6.57348 13.8926 5.15461 13.4683C3.73573 13.0439 2.08036 12.4781 2.08036 12.4781C2.08036 12.4781 0.945358 11.7708 2.88448 11.0165H2.88423Z" stroke="white" stroke-width="1.5"/>
</svg>
