<svg width="24" height="24" viewBox="0 0 24 24" fill="none" xmlns="http://www.w3.org/2000/svg">
<path d="M19.3096 4.61C18.4843 3.77909 17.502 3.12046 16.4199 2.67239C15.3376 2.22431 14.177 1.99576 13.0056 2C11.4397 2.00153 9.90148 2.41422 8.54526 3.19675C7.18905 3.97928 6.06238 5.10417 5.27806 6.45878C4.49373 7.81339 4.07932 9.35019 4.07628 10.9152C4.07325 12.4803 4.48172 14.0186 5.26079 15.3763L4 20L8.72795 18.7625C10.0335 19.4884 11.5005 19.8752 12.9944 19.8875C15.3693 19.8876 17.648 18.9502 19.3346 17.2793C21.0212 15.6086 21.9792 13.3396 22 10.9663C21.9921 9.78197 21.7503 8.61089 21.2887 7.52016C20.827 6.42941 20.1544 5.44047 19.3096 4.61ZM13.0056 18.3463C11.6747 18.3472 10.3681 17.9896 9.22327 17.3113L8.9531 17.1425L6.15009 17.885L6.89306 15.1513L6.71295 14.87C5.75525 13.325 5.39783 11.4826 5.70839 9.69186C6.01895 7.90114 6.97592 6.28643 8.39801 5.15363C9.82011 4.02082 11.6085 3.44861 13.4245 3.5454C15.2405 3.64217 16.958 4.40122 18.2514 5.67875C19.6653 7.06046 20.4747 8.94519 20.5028 10.9213C20.485 12.8966 19.6872 14.7851 18.2832 16.1757C16.8792 17.5662 14.9824 18.3464 13.0056 18.3463ZM17.0694 12.7888C16.8443 12.6763 15.7523 12.1363 15.5497 12.0688C15.3471 12.0013 15.1895 11.9563 15.0432 12.1813C14.823 12.4829 14.5861 12.772 14.334 13.0475C14.2101 13.205 14.075 13.2163 13.8499 13.0475C12.5663 12.5406 11.4968 11.6068 10.8218 10.4038C10.5854 10.01 11.0469 10.0325 11.4747 9.18876C11.5063 9.12789 11.5227 9.06039 11.5227 8.99188C11.5227 8.92337 11.5063 8.85587 11.4747 8.79501C11.4747 8.6825 10.9681 7.58 10.788 7.14125C10.6079 6.7025 10.4278 6.77 10.2814 6.75875H9.8424C9.72865 6.76049 9.61659 6.78649 9.5137 6.83499C9.41081 6.88349 9.31947 6.95338 9.24578 7.04C8.99319 7.28545 8.79618 7.58216 8.66802 7.91012C8.53986 8.23808 8.48353 8.58968 8.50281 8.94126C8.5734 9.78287 8.89054 10.585 9.41463 11.2475C10.374 12.6828 11.6887 13.8455 13.2308 14.6225C14.0396 15.0943 14.9795 15.2917 15.9099 15.185C16.2197 15.1236 16.5132 14.9977 16.7711 14.8154C17.0291 14.6333 17.2458 14.3989 17.4071 14.1275C17.5566 13.7963 17.6037 13.4281 17.5422 13.07C17.4409 12.9575 17.2946 12.9013 17.0694 12.7888Z" fill="white"/>
</svg>
